<svg width="35" height="35" viewBox="0 0 35 35" fill="none" xmlns="http://www.w3.org/2000/svg">
<path d="M20.8398 16.0527C23.647 15.7029 25.8193 13.3083 25.8193 10.4064C25.8193 7.50442 23.647 5.10984 20.8398 4.76001C22.1682 6.26474 22.9742 8.24142 22.9742 10.4064C22.9742 12.5713 22.1682 14.548 20.8398 16.0527Z" fill="white"/>
<path d="M28.6646 28.8999C28.6646 29.6856 29.3015 30.3225 30.0872 30.3225C30.8729 30.3225 31.5098 29.6856 31.5098 28.8999V26.0548C31.5098 22.2705 28.5546 19.1766 24.8262 18.9546C26.3229 20.2801 27.4679 21.9938 28.1035 23.9379C28.4605 24.5618 28.6646 25.2844 28.6646 26.0548V28.8999Z" fill="white"/>
<path fill-rule="evenodd" clip-rule="evenodd" d="M10.1705 21.7871C7.81351 21.7871 5.90278 23.6978 5.90278 26.0548V28.9C5.90278 29.6856 5.26587 30.3225 4.4802 30.3225C3.69453 30.3225 3.05762 29.6856 3.05762 28.9V26.0548C3.05762 22.1264 6.24217 18.9419 10.1705 18.9419H18.706C22.6344 18.9419 25.8189 22.1265 25.8189 26.0548V28.9C25.8189 29.6856 25.182 30.3225 24.3963 30.3225C23.6107 30.3225 22.9737 29.6856 22.9737 28.9V26.0548C22.9737 23.6978 21.063 21.7871 18.706 21.7871H10.1705Z" fill="white"/>
<path fill-rule="evenodd" clip-rule="evenodd" d="M14.4384 7.56123C12.867 7.56123 11.5932 8.83505 11.5932 10.4064C11.5932 11.9777 12.867 13.2515 14.4384 13.2515C16.0097 13.2515 17.2835 11.9777 17.2835 10.4064C17.2835 8.83505 16.0097 7.56123 14.4384 7.56123ZM8.74805 10.4064C8.74805 7.26371 11.2957 4.71606 14.4384 4.71606C17.581 4.71606 20.1287 7.26371 20.1287 10.4064C20.1287 13.5491 17.581 16.0967 14.4384 16.0967C11.2957 16.0967 8.74805 13.5491 8.74805 10.4064Z" fill="white"/>
</svg>
