<svg xmlns="http://www.w3.org/2000/svg" version="1.1" viewBox="-5.0 -10.0 110.0 135.0">
 <path d="m59.09 18.051 21.203-10.324h-41.059v28.32h12.789c2.0508 0 3.7148 1.6641 3.7188 3.7148v7.5391c-0.003907 2.0508-1.668 3.7148-3.7188 3.7148h-12.789v28.32h19.035v-60.035c0-0.54297 0.32031-1.0352 0.82031-1.25zm28.48-11.688v74.336c0.003907 0.54297-0.32031 1.0352-0.81641 1.25l-26.523 12.91c-0.42188 0.20703-0.92188 0.17969-1.3203-0.070313-0.39453-0.25-0.63672-0.68359-0.64062-1.1523v-11.574h-20.398c-0.75391 0-1.3633-0.60938-1.3633-1.3633v-29.684h-2.2617c0.10156 0.88672-0.070313 1.7812-0.48828 2.5664-1.0234 1.7695-3.2812 2.3828-5.0586 1.3711l-14.391-8.1953c-1.1602-0.65625-1.8828-1.8906-1.8828-3.2266s0.72266-2.5703 1.8828-3.2266l14.391-8.1953c1.1523-0.65625 2.5625-0.64844 3.707 0.015625 1.1406 0.66406 1.8477 1.8867 1.8477 3.2109v0.71094h2.2578v-29.684c0-0.75 0.60547-1.3594 1.3594-1.3633h48.34c0.75 0 1.3594 0.60938 1.3594 1.3633zm-54.688 41.926c-0.75 0-1.3633 0.61328-1.3633 1.3633v2.0742c0.007813 0.35547-0.17969 0.6875-0.48828 0.86719-0.30859 0.17578-0.6875 0.17578-0.99609-0.003906l-14.383-8.1953c-0.30859-0.17578-0.5-0.50781-0.5-0.86328s0.19141-0.68359 0.5-0.86328l14.387-8.1953h-0.003906c0.30859-0.17969 0.6875-0.18359 0.99609-0.003906s0.49609 0.51172 0.48828 0.86719v2.0742c0 0.75 0.61328 1.3633 1.3633 1.3633h19.141c0.54687 0 0.98828 0.44531 0.99219 0.98828v7.5391c-0.003906 0.54688-0.44531 0.98828-0.99219 0.98828zm51.961-39.746v71.305l-23.844 11.609v-71.301z" fill-rule="evenodd"/></svg>